PathFileType	4	(X/Y/Z)	D:\TRACE\v60_Jaco2_6-2-23\JustBodyDRS_Motion1_4-platform.trc
DataRate	CameraRate	NumFrames	NumMarkers	Units	OrigDataRate	OrigDataStartFrame	OrigNumFrames
100.00	100.00	      66	5	mm	100.00	3479	      6956
Frame#	Time	Left_Front			Right_Front			Left_Aft			Right_Aft			Post			
		X1	Y1	Z1	X2	Y2	Z2	X3	Y3	Z3	X4	Y4	Z4	X5	Y5	Z5	

3479	34.780	-759.40521	4.56534	-640.25470	810.50165	6.18312	-645.47076	-667.63403	10.37995	494.71176	774.64386	10.03541	504.06790	26.37069	1302.13965	-970.03455	
3480	34.790	-758.87494	4.32809	-640.34100	810.99371	5.89258	-645.72314	-666.92651	10.58541	494.61392	775.30792	10.28566	503.98526	26.85073	1301.68530	-970.56561	
3481	34.800	-758.12402	4.15759	-640.49609	811.67566	5.55500	-645.74597	-666.34570	10.81823	494.37973	775.72552	10.36059	503.87613	27.73360	1301.25134	-971.69818	
3482	34.810	-757.46466	3.71879	-640.59875	812.42059	5.24265	-645.79065	-665.80682	11.04491	494.10406	776.47101	10.68840	503.92792	28.43318	1300.47083	-973.20605	
3483	34.820	-756.94604	3.27451	-640.67981	813.11359	4.79144	-645.89868	-664.45172	10.39346	495.35782	777.18451	11.07918	503.97455	28.75671	1299.96692	-974.07593	
3484	34.830	-756.48865	2.90869	-640.65625	813.57416	4.44149	-646.07111	-664.85760	11.64580	494.20206	777.60590	11.28743	503.78784	29.13976	1299.49854	-975.55975	
3485	34.840	-756.11841	2.61385	-640.72266	813.77728	4.11793	-646.13867	-664.18671	11.99639	494.09027	778.04022	11.33967	503.57645	29.89298	1299.21497	-976.28162	
3486	34.850	-755.32465	2.22634	-640.90967	814.39624	3.64266	-646.15216	-663.47351	12.25500	494.03476	778.65015	11.56457	503.51004	30.79612	1298.67822	-976.99982	
3487	34.860	-754.77734	1.89794	-640.91260	815.02808	3.39674	-646.06372	-663.16705	12.47687	494.02997	779.31769	11.91736	503.52719	30.97887	1298.17383	-977.49585	
3488	34.870	-754.16064	1.45243	-641.06305	815.60095	3.01254	-646.40295	-662.74146	12.75391	493.98038	779.66187	12.08700	503.43594	31.46224	1297.43018	-978.33966	
3489	34.880	-753.91705	1.24711	-641.11914	816.02063	2.70450	-646.56665	-662.18719	12.85522	493.88568	780.14264	12.33844	503.25806	31.95809	1296.83691	-978.66693	
3490	34.890	-753.40607	0.75530	-641.22601	816.47357	2.25715	-646.64972	-661.63995	13.03915	493.69122	780.57684	12.57496	503.02902	32.06946	1296.37683	-978.77728	
3491	34.900	-753.02850	0.33454	-641.24377	816.68085	2.02637	-646.68402	-661.26263	13.18010	493.56415	780.89307	12.75692	502.89120	32.35876	1295.87463	-979.13293	
3492	34.910	-752.73035	0.08884	-641.32617	817.17358	1.66117	-646.81470	-660.69263	13.38317	493.52567	781.36652	13.12803	502.96536	33.49324	1295.43616	-979.76654	
3493	34.920	-752.41571	-0.16952	-641.37415	817.68335	1.26451	-646.82990	-660.32190	13.64869	493.58472	781.75464	13.41244	502.95047	33.43098	1294.96033	-980.40735	
3494	34.930	-751.93323	-0.47031	-641.60980	817.93402	0.96496	-646.87274	-660.17108	13.77584	493.50082	782.21844	13.75364	502.90900	33.77282	1294.43506	-981.52020	
3495	34.940	-751.56232	-0.87638	-641.79321	817.96588	0.75092	-647.04352	-659.96075	14.14507	493.49268	782.44183	14.00525	502.81760	33.62115	1293.85889	-982.64038	
3496	34.950	-751.33038	-1.25450	-641.93915	818.30072	0.34165	-647.03918	-659.62421	14.43664	493.39035	782.71674	14.28099	502.62396	34.49227	1293.30591	-983.74042	
3497	34.960	-751.16724	-1.63600	-641.99011	818.65161	-0.30025	-647.14838	-659.40021	14.71196	493.24091	782.81927	14.52686	502.48599	34.33884	1292.64685	-984.81061	
3498	34.970	-751.00366	-2.08331	-641.93469	818.76520	-0.64833	-647.21558	-659.18951	15.06058	493.16534	783.05798	14.84675	502.42416	34.54444	1292.19519	-985.92957	
3499	34.980	-750.79791	-2.43470	-641.69556	818.95416	-0.90361	-647.16125	-659.11584	15.34460	493.05270	783.13489	15.06293	502.38644	34.91043	1291.66870	-986.64075	
3500	34.990	-750.93738	-2.95668	-641.98505	819.06641	-1.17808	-647.33710	-659.09155	15.47689	493.02191	783.19073	15.21083	502.30212	35.36548	1290.99927	-987.60211	
3501	35.000	-750.76910	-3.20273	-642.12506	819.15747	-1.57234	-647.50201	-658.97821	15.62332	492.94119	783.26355	15.50106	502.20447	35.57391	1290.57764	-988.07965	
3502	35.010	-750.59741	-3.60349	-642.23560	819.52222	-1.93735	-647.53546	-658.62280	15.64971	492.83453	783.21912	15.73198	502.10602	35.14963	1289.90979	-988.75220	
3503	35.020	-750.50287	-3.91810	-642.30554	819.54358	-2.13591	-647.61475	-657.95520	15.17148	493.26941	783.34540	15.96234	501.94656	35.09120	1289.57178	-989.28827	
3504	35.030	-750.50690	-4.09642	-642.30341	819.64819	-2.43923	-647.68988	-658.15936	16.12841	492.52527	783.25366	16.11740	501.84348	35.33416	1288.88184	-989.73334	
3505	35.040	-750.50323	-4.42318	-642.33307	819.63257	-2.84926	-647.74091	-658.13617	16.47626	492.39758	782.69757	15.91599	502.25247	35.28193	1288.17053	-990.34717	
3506	35.050	-750.43365	-4.82438	-642.34357	819.58527	-3.31845	-647.87524	-658.79547	17.38930	492.72797	782.75940	16.14367	502.02133	35.32584	1287.55969	-990.71460	
3507	35.060	-750.44104	-5.29134	-642.40790	819.61731	-3.78235	-647.93842	-658.33795	16.90499	492.51526	783.03455	16.77524	502.07983	35.42917	1287.20569	-991.43945	
3508	35.070	-750.41022	-5.73360	-642.55957	819.43762	-4.11170	-647.98260	-658.38440	17.10375	492.21930	783.09540	16.99463	501.77875	35.27947	1286.82434	-992.48853	
3509	35.080	-750.42023	-6.08956	-642.60687	819.50061	-4.48989	-648.11285	-658.87274	17.96411	491.66956	783.09967	17.21371	501.67108	35.00195	1286.35376	-993.27686	
3510	35.090	-750.63214	-6.54963	-642.57324	819.51483	-4.68061	-648.22766	-658.63715	17.89194	491.73761	783.23535	17.57044	501.64771	35.11663	1285.84558	-994.37091	
3511	35.100	-750.51117	-6.92863	-642.64813	819.68414	-4.90964	-648.16498	-658.45258	18.07766	491.87814	783.30481	18.04390	501.71448	35.11253	1285.19592	-995.00348	
3512	35.110	-750.45184	-7.12860	-642.66571	819.62848	-5.23550	-648.20813	-658.38629	18.27621	491.88303	783.37860	18.40715	501.59937	35.17433	1284.72729	-995.94867	
3513	35.120	-750.42834	-7.49582	-642.82166	819.52032	-5.63555	-648.33777	-658.33685	18.40302	491.79730	783.23315	18.55997	501.53882	35.41691	1284.26929	-996.86694	
3514	35.130	-750.55804	-7.75772	-642.93854	819.27606	-6.07996	-648.60736	-658.47430	18.55174	491.79959	783.52710	18.76999	501.33072	34.96397	1283.68311	-997.54767	
3515	35.140	-750.75952	-7.99014	-643.08752	818.87622	-6.17372	-648.62018	-658.73889	18.76388	491.75027	783.17291	19.07480	501.22223	35.00296	1282.98657	-997.96613	
3516	35.150	-751.27759	-8.23060	-643.21014	818.74261	-6.23838	-648.62024	-659.20593	19.10331	491.54816	782.92346	19.31740	501.17917	34.65905	1282.52625	-998.81885	
3517	35.160	-751.42316	-8.62612	-643.33917	818.62537	-6.83450	-648.62506	-659.57245	19.68258	491.27588	782.58136	19.55019	501.14896	34.13145	1282.18579	-999.69434	
3518	35.170	-751.70026	-9.22351	-643.48523	818.37170	-7.39700	-648.54126	-659.83374	19.90690	491.17221	782.27673	19.78541	501.03336	33.88420	1281.61340	-1000.13251	
3519	35.180	-751.95337	-9.69313	-643.72101	818.04810	-7.83377	-648.74982	-659.99945	20.00281	491.15732	781.47620	19.62223	500.40710	33.80077	1280.73132	-1000.41632	
3520	35.190	-751.98993	-10.23921	-643.41193	817.63373	-8.24884	-648.97510	-660.24176	20.18206	491.04724	781.97986	20.24446	500.82974	33.77377	1279.95300	-1001.53351	
3521	35.200	-752.31854	-10.54788	-643.55493	817.48834	-8.51116	-649.08765	-660.39539	20.45606	490.93826	782.04199	20.76325	500.95160	33.44675	1279.56311	-1002.68585	
3522	35.210	-752.58276	-10.84002	-643.71393	817.25079	-8.85140	-649.15729	-660.61774	20.66630	490.96436	781.78168	20.99517	500.84354	33.12542	1278.90491	-1003.80725	
3523	35.220	-752.95190	-11.12673	-643.87311	816.99487	-8.99803	-649.20911	-660.61212	20.79930	491.03085	781.02924	21.12222	500.81134	32.94901	1278.48413	-1005.24023	
3524	35.230	-753.19781	-11.47760	-643.89874	816.85950	-9.34930	-649.12524	-660.80414	20.89063	490.81830	780.68457	21.27610	500.71426	32.40681	1278.14697	-1006.03156	
3525	35.240	-753.62720	-11.77074	-643.90161	816.45758	-9.84955	-649.20441	-661.82947	21.41962	490.68546	780.37366	21.47381	500.62521	32.51050	1277.77197	-1006.89105	
3526	35.250	-753.93079	-12.01586	-643.80994	815.75732	-9.96107	-649.43158	-663.01257	22.14136	490.79410	780.19604	21.85541	500.53632	31.88088	1277.24268	-1007.98785	
3527	35.260	-754.49170	-12.15152	-643.79022	815.17859	-10.09890	-649.42554	-663.20392	22.15228	490.87561	779.77100	21.90862	500.22388	31.55831	1276.93396	-1008.60291	
3528	35.270	-755.02448	-12.26503	-643.99554	814.86621	-10.35899	-649.43634	-663.84991	22.86244	490.06332	779.47974	22.16112	500.10461	30.81535	1276.55579	-1008.99451	
3529	35.280	-755.30322	-12.57640	-644.19696	814.55042	-10.60715	-649.40692	-663.41943	22.01158	490.22314	778.88525	22.33223	500.09122	30.23217	1276.22827	-1009.38788	
3530	35.290	-755.85516	-13.05774	-644.29010	814.21320	-10.91029	-649.39050	-663.97357	22.36729	490.42593	778.30786	22.38862	499.97360	29.69166	1275.65723	-1009.73480	
3531	35.300	-756.24707	-13.26889	-644.37872	813.71021	-11.39290	-649.55890	-664.27197	22.51930	490.46494	777.73071	22.60346	499.89835	29.46704	1275.09326	-1009.83118	
3532	35.310	-756.62714	-13.56571	-644.38708	813.35706	-11.74722	-649.77039	-664.92487	22.84758	490.26974	777.34808	22.82492	499.81671	28.90676	1274.54626	-1009.85962	
3533	35.320	-757.03015	-14.04888	-644.44513	813.07153	-12.15180	-649.68494	-665.32031	22.86465	490.35065	777.02045	23.25036	499.75916	28.60299	1274.21289	-1010.00623	
3534	35.330	-757.43329	-14.30440	-644.59326	812.38098	-12.31874	-649.75415	-665.85901	23.20360	490.08212	776.59296	23.46470	499.69269	28.16168	1273.85327	-1010.35406	
3535	35.340	-758.07874	-14.93090	-644.39691	811.73236	-12.54744	-649.84113	-666.33636	23.37621	489.96478	775.82550	23.54681	499.61868	27.43160	1273.28955	-1010.75122	
3536	35.350	-758.55890	-15.16870	-644.28870	811.25006	-12.91902	-649.76459	-666.83704	23.94621	489.85907	775.17334	23.65892	499.53644	26.85466	1272.76953	-1011.38928	
3537	35.360	-759.07581	-15.27720	-644.32129	810.67609	-13.30439	-649.94104	-667.01630	23.68608	489.91251	774.88232	23.79138	499.49606	26.57696	1272.54944	-1012.40936	
3538	35.370	-759.57495	-15.36657	-644.51855	810.43414	-13.48760	-649.97406	-667.74213	23.80758	489.75821	774.56482	24.07740	499.47345	26.07849	1272.12427	-1013.48877	
3539	35.380	-760.25360	-15.56614	-644.71368	809.98260	-13.58229	-650.04749	-668.37286	24.05173	489.73798	773.98944	24.25504	499.36121	25.57385	1271.63892	-1014.27277	
3540	35.390	-760.79675	-15.85966	-644.69263	809.00629	-13.79983	-650.28827	-668.97284	24.19860	489.69687	773.32739	24.42454	499.30994	24.84649	1271.07458	-1015.39014	
3541	35.400	-761.30511	-16.08533	-644.86334	808.49408	-14.00510	-650.22119	-669.41345	24.44682	489.75095	772.72925	24.51691	499.31247	24.60846	1270.96582	-1016.20319	
3542	35.410	-761.65808	-16.21255	-644.88446	808.02570	-14.40600	-650.10120	-669.99634	24.42974	489.66507	771.97845	24.78014	499.38007	24.27043	1270.52161	-1016.72272	
3543	35.420	-762.50275	-16.46688	-644.79083	807.40009	-14.57190	-650.05011	-670.71075	24.60743	489.62997	771.74963	24.88787	499.29227	23.37379	1270.25305	-1017.48859	
3544	35.430	-763.25562	-16.71476	-644.69281	806.86377	-14.81066	-650.23328	-671.27197	24.71966	489.72150	771.02936	25.03621	499.18402	22.50050	1269.96008	-1017.88306	
